<?xml version="1.0" encoding="utf-8"?>
<svg version="1.1" xmlns:xlink="http://www.w3.org/1999/xlink" width="56px" height="56px" xmlns="http://www.w3.org/2000/svg">
  <g transform="matrix(1 0 0 1 -904 -135 )">
    <path d="M 932 135  C 947.68 135  960 147.32  960 163  C 960 178.68  947.68 191  932 191  C 916.32 191  904 178.68  904 163  C 904 147.32  916.32 135  932 135  Z " fill-rule="nonzero" fill="#f3857c" stroke="none" />
    <path d="M 16.9166666666667 16.8  L 18.6484375 13.2  L 24.4088541666667 13.2  C 24.3967013888889 13.1625  24.3815104166667 13.1125  24.36328125 13.05  C 24.3450520833333 12.9875  24.3298611111111 12.9375  24.3177083333333 12.9  L 20.453125 4  L 7.546875 4  L 3.68229166666667 12.9  C 3.67013888888889 12.925  3.65494791666667 12.975  3.63671875 13.05  C 3.61848958333333 13.125  3.60329861111111 13.175  3.59114583333333 13.2  L 9.3515625 13.2  L 11.0833333333333 16.8  L 16.9166666666667 16.8  Z M 27.5442708333333 11.45625  C 27.8480902777778 12.21875  28 12.9875  28 13.7625  L 28 22.8  C 28 23.125  27.8845486111111 23.40625  27.6536458333333 23.64375  C 27.4227430555556 23.88125  27.1493055555556 24  26.8333333333333 24  L 1.16666666666667 24  C 0.850694444444445 24  0.577256944444444 23.88125  0.346354166666667 23.64375  C 0.115451388888889 23.40625  0 23.125  0 22.8  L 0 13.7625  C 0 12.9875  0.151909722222222 12.21875  0.455729166666667 11.45625  L 4.79427083333333 1.10625  C 4.91579861111111 0.793749999999998  5.13758680555556 0.531249999999999  5.45963541666667 0.318750000000001  C 5.78168402777778 0.106249999999997  6.10069444444444 0  6.41666666666667 0  L 21.5833333333333 0  C 21.8993055555556 0  22.2183159722222 0.106249999999997  22.5403645833333 0.318750000000001  C 22.8624131944444 0.531249999999999  23.0842013888889 0.793749999999998  23.2057291666667 1.10625  L 27.5442708333333 11.45625  Z " fill-rule="nonzero" fill="#ffffff" stroke="none" transform="matrix(1 0 0 1 919 151 )" />
  </g>
</svg>
