<?xml version="1.0" encoding="utf-8"?>
<svg version="1.1" xmlns:xlink="http://www.w3.org/1999/xlink" width="56px" height="56px" xmlns="http://www.w3.org/2000/svg">
  <g transform="matrix(1 0 0 1 -559 -136 )">
    <path d="M 587 136  C 602.68 136  615 148.32  615 164  C 615 179.68  602.68 192  587 192  C 571.32 192  559 179.68  559 164  C 559 148.32  571.32 136  587 136  Z " fill-rule="nonzero" fill="#ffd86e" stroke="none" />
    <path d="M 23.5 2  L 22 2  C 22 4.71875  21.4453125 7.12239583333333  20.3359375 9.2109375  C 19.2265625 11.2994791666667  17.8385416666667 12.8958333333333  16.171875 14  C 17.8385416666667 15.1041666666667  19.2265625 16.7005208333333  20.3359375 18.7890625  C 21.4453125 20.8776041666667  22 23.28125  22 26  L 23.5 26  C 23.6458333333333 26  23.765625 26.046875  23.859375 26.140625  C 23.953125 26.234375  24 26.3541666666667  24 26.5  L 24 27.5  C 24 27.6458333333333  23.953125 27.765625  23.859375 27.859375  C 23.765625 27.953125  23.6458333333333 28  23.5 28  L 0.5 28  C 0.354166666666667 28  0.234375 27.953125  0.140625 27.859375  C 0.046875 27.765625  0 27.6458333333333  0 27.5  L 0 26.5  C 0 26.3541666666667  0.046875 26.234375  0.140625 26.140625  C 0.234375 26.046875  0.354166666666667 26  0.5 26  L 2 26  C 2 23.28125  2.5546875 20.8776041666667  3.6640625 18.7890625  C 4.7734375 16.7005208333333  6.16145833333333 15.1041666666667  7.828125 14  C 6.16145833333333 12.8958333333333  4.7734375 11.2994791666667  3.6640625 9.2109375  C 2.5546875 7.12239583333333  2 4.71875  2 2  L 0.5 2  C 0.354166666666667 2  0.234375 1.953125  0.140625 1.859375  C 0.046875 1.765625  0 1.64583333333333  0 1.5  L 0 0.500000000000001  C 0 0.354166666666664  0.046875 0.234375  0.140625 0.140624999999999  C 0.234375 0.0468749999999987  0.354166666666667 0  0.5 0  L 23.5 0  C 23.6458333333333 0  23.765625 0.0468749999999987  23.859375 0.140624999999999  C 23.953125 0.234375  24 0.354166666666664  24 0.500000000000001  L 24 1.5  C 24 1.64583333333333  23.953125 1.765625  23.859375 1.859375  C 23.765625 1.953125  23.6458333333333 2  23.5 2  Z M 13.1796875 13.4296875  C 13.2994791666667 13.2578125  13.4583333333333 13.1354166666667  13.65625 13.0625  C 14.4583333333333 12.7604166666667  15.234375 12.2786458333333  15.984375 11.6171875  C 16.734375 10.9557291666667  17.4088541666667 10.1614583333333  18.0078125 9.234375  C 18.6067708333333 8.30729166666666  19.0885416666667 7.21354166666666  19.453125 5.953125  C 19.8177083333333 4.69270833333333  20 3.375  20 2  L 4 2  C 4 3.375  4.18229166666667 4.69270833333333  4.546875 5.953125  C 4.91145833333333 7.21354166666666  5.39322916666667 8.30729166666666  5.9921875 9.234375  C 6.59114583333333 10.1614583333333  7.265625 10.9557291666667  8.015625 11.6171875  C 8.765625 12.2786458333333  9.54166666666667 12.7604166666667  10.34375 13.0625  C 10.5416666666667 13.1354166666667  10.7005208333333 13.2578125  10.8203125 13.4296875  C 10.9401041666667 13.6015625  11 13.7916666666667  11 14  C 11 14.2083333333333  10.9401041666667 14.3984375  10.8203125 14.5703125  C 10.7005208333333 14.7421875  10.5416666666667 14.8645833333333  10.34375 14.9375  C 8.91666666666667 15.46875  7.64583333333333 16.4895833333333  6.53125 18  L 17.46875 18  C 16.3541666666667 16.4895833333333  15.0833333333333 15.46875  13.65625 14.9375  C 13.4583333333333 14.8645833333333  13.2994791666667 14.7421875  13.1796875 14.5703125  C 13.0598958333333 14.3984375  13 14.2083333333333  13 14  C 13 13.7916666666667  13.0598958333333 13.6015625  13.1796875 13.4296875  Z " fill-rule="nonzero" fill="#ffffff" stroke="none" transform="matrix(1 0 0 1 575 150 )" />
  </g>
</svg>
